<?xml version="1.0" standalone="no"?>
<!DOCTYPE svg PUBLIC "-//W3C//DTD SVG 20010904//EN"
 "http://www.w3.org/TR/2001/REC-SVG-20010904/DTD/svg10.dtd">
<svg version="1.0" xmlns="http://www.w3.org/2000/svg"
 width="16.000000pt" height="16.000000pt" viewBox="0 0 16.000000 16.000000"
 preserveAspectRatio="xMidYMid meet">
<metadata>
Created by potrace 1.11, written by Peter Selinger 2001-2013
</metadata>
<g transform="translate(0.000000,16.000000) scale(0.006154,-0.006154)"
fill="#000000" stroke="none">
<path d="M1290 2394 c0 -9 -9 -18 -20 -21 -13 -3 -20 -14 -20 -28 0 -13 -7
-25 -15 -29 -9 -3 -15 0 -15 9 0 20 -49 19 -57 -1 -3 -8 0 -26 7 -39 15 -27 7
-55 -15 -55 -8 0 -16 3 -16 8 -1 4 -3 20 -5 36 -4 35 -21 48 -46 35 -19 -10
-24 -44 -8 -54 6 -3 10 -17 10 -31 0 -22 -3 -23 -20 -14 -11 6 -20 19 -20 30
0 24 -15 33 -40 25 -24 -8 -25 -31 -4 -74 9 -18 14 -35 11 -37 -3 -3 -12 7
-19 23 -8 15 -19 27 -25 26 -6 -1 -26 -5 -44 -8 -18 -3 -36 -8 -41 -11 -15
-10 -8 -34 11 -34 13 0 20 -10 25 -31 4 -22 14 -34 36 -42 19 -7 31 -20 35
-38 7 -31 54 -84 83 -93 18 -6 19 -10 9 -36 -6 -16 -18 -31 -26 -33 -9 -3 -24
-8 -33 -12 -12 -5 -18 -3 -18 6 0 8 -5 21 -10 29 -8 13 -12 12 -25 -7 -15 -22
-43 -34 -30 -13 14 23 13 71 -1 77 -13 5 -12 8 2 24 16 18 16 19 -9 19 -14 0
-29 -5 -32 -11 -4 -6 -13 -8 -20 -5 -31 12 -48 -61 -24 -106 10 -18 7 -17 -23
6 -19 14 -45 26 -58 26 -23 0 -23 -8 -5 -52 5 -13 0 -21 -22 -30 -39 -17 -38
-16 -18 -38 10 -11 16 -21 14 -23 -2 -1 -28 -14 -56 -29 l-53 -28 0 25 c0 31
-19 32 -49 4 -12 -12 -25 -19 -27 -16 -3 3 -8 26 -12 52 l-7 48 -32 -30 c-31
-29 -32 -29 -41 -9 -8 19 -10 17 -21 -16 -7 -21 -9 -47 -6 -59 4 -13 1 -27
-10 -39 -15 -17 -15 -19 0 -27 13 -8 12 -12 -10 -33 -14 -13 -25 -26 -25 -30
0 -3 21 -6 47 -6 80 1 65 -17 -60 -75 -15 -7 -36 -27 -47 -43 -11 -17 -33 -44
-49 -59 -34 -33 -45 -74 -26 -103 21 -32 17 -170 -6 -221 -10 -24 -19 -55 -19
-70 0 -16 -7 -41 -15 -57 -13 -25 -13 -31 -1 -45 7 -9 17 -34 21 -56 4 -22 15
-57 26 -79 10 -21 16 -42 14 -46 -6 -10 15 -27 40 -32 21 -4 22 -32 3 -55 -15
-19 -34 -16 -76 12 -71 47 -142 41 -184 -15 -35 -48 -30 -97 19 -169 20 -30
22 -37 10 -46 -8 -6 -34 -28 -57 -49 -41 -37 -42 -40 -25 -53 14 -10 18 -23
16 -52 -3 -49 13 -60 44 -31 22 20 25 21 31 6 10 -27 20 -18 32 32 30 116 30
145 3 204 -24 53 -27 91 -8 106 15 13 49 -3 119 -53 57 -42 141 -43 210 -2 39
23 51 25 74 17 53 -21 130 16 163 78 l12 23 37 -32 c85 -75 212 -103 325 -73
44 11 53 11 67 -1 19 -17 70 -20 70 -4 0 5 5 7 11 3 8 -4 8 -9 0 -17 -6 -6
-11 -14 -11 -18 0 -14 32 -19 51 -8 17 9 21 7 26 -10 7 -27 19 -27 26 0 5 17
9 19 26 10 19 -11 51 -6 51 8 0 4 -5 12 -11 18 -8 8 -8 13 0 17 6 4 11 2 11
-3 0 -16 51 -13 69 3 13 12 24 12 65 2 84 -22 177 -13 249 22 34 17 73 42 86
56 l24 25 29 -36 c16 -20 37 -42 47 -49 26 -19 76 -26 105 -14 21 7 36 4 82
-20 38 -20 71 -30 101 -30 51 0 71 9 130 57 82 66 130 24 83 -72 -12 -24 -21
-54 -21 -67 0 -13 1 -32 1 -43 1 -11 9 -51 19 -89 17 -65 19 -68 30 -47 l13
23 23 -22 c31 -29 48 -17 43 28 -3 25 1 41 14 54 18 18 17 20 -34 65 -56 49
-59 62 -27 96 44 47 44 126 0 170 -43 43 -89 46 -161 8 -33 -17 -64 -31 -69
-31 -6 0 -18 14 -26 30 -16 30 -16 30 15 36 22 5 30 12 30 28 0 11 7 29 15 40
8 10 19 44 26 75 6 31 18 64 26 73 12 13 13 21 5 31 -6 7 -14 28 -17 47 -10
58 -25 109 -34 114 -13 9 -7 178 7 203 22 40 13 58 -104 186 -14 15 -33 27
-43 27 -10 0 -30 9 -44 20 -14 11 -30 20 -36 20 -6 0 -11 5 -11 10 0 17 43 28
69 18 37 -14 39 1 4 32 -30 27 -30 28 -10 34 20 5 20 6 4 24 -12 13 -15 28
-11 49 4 19 0 41 -9 59 -14 26 -15 27 -21 7 -6 -20 -8 -19 -38 11 l-32 31 -7
-48 c-4 -27 -9 -51 -12 -53 -2 -2 -14 5 -27 16 -31 27 -50 25 -50 -5 l0 -24
-59 32 c-54 29 -57 33 -40 45 26 18 24 26 -11 39 -27 10 -29 14 -20 38 5 14
10 31 10 37 0 17 -61 0 -88 -25 l-25 -22 12 22 c15 29 14 90 -1 99 -7 5 -19 9
-28 11 -8 1 -28 5 -45 9 -29 7 -29 7 -11 -11 15 -16 16 -19 3 -27 -12 -6 -13
-16 -7 -45 11 -47 4 -55 -22 -24 -16 21 -21 22 -29 10 -5 -7 -9 -20 -9 -26 0
-16 0 -16 -36 -3 -38 13 -62 66 -34 75 29 9 78 65 85 96 4 18 14 29 28 31 14
2 29 17 40 41 10 20 25 37 33 37 36 0 4 41 -36 46 -19 2 -36 6 -38 9 -10 9
-32 -17 -32 -38 0 -11 -3 -17 -7 -13 -13 12 -11 35 3 47 19 15 18 55 -1 63
-22 8 -45 -4 -45 -24 0 -22 -22 -41 -37 -32 -9 6 -9 15 2 36 20 38 19 53 -4
66 -24 13 -52 -11 -44 -38 5 -21 -21 -47 -37 -37 -13 8 -13 31 2 54 6 10 8 26
5 35 -8 20 -57 22 -57 1 0 -9 -6 -12 -15 -9 -8 4 -15 17 -15 31 0 18 -4 24
-15 19 -10 -3 -17 3 -21 19 -7 28 -24 34 -24 9z m43 -64 c2 -9 -1 -24 -8 -34
-20 -27 -8 -55 23 -51 27 3 55 32 46 47 -3 5 -3 16 0 25 5 12 9 13 21 3 14
-12 14 -15 0 -30 -11 -12 -14 -26 -9 -44 5 -23 11 -27 38 -24 27 3 32 7 36 37
3 19 11 36 18 39 15 5 16 -30 1 -45 -16 -16 -7 -57 14 -61 20 -4 60 26 52 39
-7 10 13 22 25 14 6 -4 4 -15 -6 -30 -18 -27 -15 -76 4 -83 7 -2 17 9 23 27
10 27 14 30 42 24 39 -7 45 -12 29 -22 -7 -4 -14 -17 -17 -29 -2 -12 -7 -27
-10 -32 -11 -18 -50 -10 -75 17 -106 111 -297 141 -455 72 -35 -15 -106 -68
-118 -86 -14 -22 -55 -16 -63 10 -5 12 -8 26 -9 30 0 4 -7 12 -15 17 -18 11
-13 16 28 23 30 6 33 4 39 -24 4 -20 11 -29 22 -27 22 4 27 63 7 84 -9 9 -14
20 -11 25 11 16 24 10 37 -18 9 -20 21 -28 38 -28 27 0 31 21 15 79 -6 22 -5
28 6 24 8 -2 15 -18 17 -34 4 -34 27 -55 50 -47 24 9 31 23 25 47 -9 37 -8 51
2 56 6 3 10 -8 11 -23 1 -34 11 -44 47 -51 24 -4 27 -2 27 24 0 16 -4 31 -10
35 -10 6 -3 33 14 51 13 14 43 -2 49 -26z m-79 -36 c19 -19 21 -34 4 -34 -23
0 -41 18 -35 34 8 20 12 20 31 0z m120 -17 c-6 -18 -44 -24 -44 -8 0 5 7 17
16 26 19 19 38 7 28 -18z m32 -81 c64 -17 136 -59 169 -98 37 -44 23 -46 -27
-5 -24 19 -57 42 -75 51 -51 26 -153 45 -208 40 -68 -8 -165 -48 -213 -90 -54
-46 -63 -27 -11 21 42 37 108 72 164 86 50 12 147 10 201 -5z m-3 -52 c37 -27
53 -65 33 -76 -22 -12 -20 -35 4 -43 23 -7 28 -45 6 -45 -8 0 -20 -2 -28 -5
-13 -5 -14 -1 -18 87 -1 21 -9 29 -36 38 -20 7 -40 22 -46 36 -14 30 -22 30
-36 0 -6 -14 -27 -30 -47 -37 -21 -8 -35 -19 -34 -29 1 -8 -2 -34 -6 -58 -6
-32 -12 -42 -22 -38 -8 4 -19 6 -24 6 -18 0 -9 42 11 47 24 6 25 16 6 35 -11
12 -11 20 -1 44 11 26 31 42 75 58 32 12 138 -1 163 -20z m-258 -41 c-13 -39
-11 -58 6 -48 5 3 -1 -10 -14 -29 -12 -19 -25 -35 -28 -36 -16 -1 -68 61 -62
75 4 12 96 74 109 75 1 0 -4 -17 -11 -37z m392 -20 c27 -23 16 -56 -25 -77
-28 -14 -30 -14 -40 9 -7 14 -17 25 -24 25 -8 0 -6 5 4 11 16 9 17 13 3 46 -8
19 -15 37 -15 39 0 7 73 -34 97 -53z m-169 -3 c15 0 28 -103 13 -108 -6 -2 -9
-7 -6 -11 2 -5 -1 -16 -9 -26 -15 -20 -56 -13 -56 11 0 8 -4 14 -10 14 -5 0
-10 -6 -10 -14 0 -8 -9 -18 -20 -21 -23 -7 -53 12 -44 27 4 6 1 14 -6 18 -9 5
-10 22 -5 58 6 44 10 52 36 61 16 5 32 17 35 25 5 13 11 11 38 -9 18 -14 38
-25 44 -25z m-258 -104 c22 -9 54 -16 70 -16 21 0 30 -5 30 -16 0 -14 -7 -15
-42 -10 -62 10 -121 41 -140 74 -24 40 -9 50 19 13 12 -16 41 -36 63 -45z
m447 16 c-45 -46 -167 -81 -167 -48 0 8 8 14 18 14 41 -2 108 26 137 57 19 20
33 28 37 21 4 -6 -7 -26 -25 -44z m-644 -32 c-4 -14 0 -20 11 -20 21 0 21 -38
0 -62 -16 -16 -16 -18 0 -24 9 -3 27 1 41 10 23 15 26 15 31 1 11 -27 -4 -45
-38 -45 -18 0 -43 -3 -54 -6 -19 -5 -22 -1 -27 38 -3 23 -9 56 -13 72 -5 23
-4 28 8 24 8 -4 20 2 26 13 16 25 21 24 15 -1z m794 -6 c4 -12 8 -12 13 -4 13
21 23 -27 11 -49 -6 -11 -11 -36 -11 -57 0 -33 -2 -36 -22 -30 -13 3 -38 6
-56 6 -34 0 -49 18 -38 45 5 14 8 14 31 -1 14 -9 31 -14 40 -11 12 5 13 10 0
34 -20 37 -19 57 1 49 13 -5 15 -2 11 14 -6 24 11 27 20 4z m-524 -41 c18 -2
49 -18 69 -34 20 -16 42 -29 48 -29 6 0 28 13 48 30 20 16 55 32 77 36 22 3
43 8 47 10 11 7 41 -44 33 -56 -4 -6 5 -10 23 -10 45 0 56 -21 26 -49 -24 -23
-24 -23 -24 -2 0 12 -2 21 -4 21 -2 0 -11 3 -20 6 -9 4 -20 -4 -30 -24 -8 -16
-13 -32 -10 -35 3 -3 1 -8 -5 -11 -5 -3 -19 6 -30 20 -12 15 -21 25 -22 23 0
-2 -3 -15 -5 -29 -4 -22 -19 -39 -35 -40 -3 0 -12 18 -19 41 -12 35 -16 39
-26 25 -6 -9 -17 -16 -24 -16 -7 0 -18 7 -24 16 -10 14 -14 10 -26 -25 -7 -23
-19 -41 -26 -41 -15 0 -37 34 -28 43 3 3 3 11 -1 17 -5 8 -12 5 -22 -9 -20
-29 -31 -26 -47 14 -16 38 -17 38 -40 29 -21 -8 -21 -40 0 -48 12 -4 14 -1 9
14 -4 11 -2 20 4 20 6 0 15 -18 21 -41 11 -39 12 -40 33 -26 20 13 24 12 40
-9 19 -26 73 -35 64 -11 -9 23 9 40 43 41 32 1 57 -24 45 -44 -13 -21 37 -9
58 14 20 21 25 22 41 10 23 -16 36 -10 36 19 0 34 16 55 32 39 9 -9 9 -12 0
-12 -7 0 -12 -4 -12 -10 0 -5 8 -6 18 -3 15 6 16 5 2 -13 -31 -40 -54 -55 -77
-49 -18 4 -21 2 -16 -12 11 -31 25 -43 50 -43 18 0 24 -5 21 -17 -2 -14 -14
-18 -49 -19 -26 0 -54 -4 -63 -7 -22 -9 -21 9 2 22 23 13 3 34 -33 34 -21 0
-30 7 -40 30 l-13 31 -15 -31 c-12 -22 -23 -30 -42 -30 -36 0 -56 -21 -32 -34
22 -13 23 -31 1 -22 -9 3 -37 7 -63 7 -35 1 -47 5 -49 19 -3 12 3 17 22 17 14
0 31 9 40 22 18 26 13 38 -13 31 -13 -3 -28 4 -43 20 -87 93 -88 93 -76 105 7
7 24 12 39 12 22 0 27 4 24 20 -4 21 31 54 47 44 5 -3 24 -8 41 -11z m148 -3
c5 0 4 -9 -3 -20 -16 -24 -44 -26 -52 -3 -7 18 12 35 32 28 8 -3 18 -5 23 -5z
m-505 -35 c23 -15 51 -72 41 -81 -11 -11 -92 -15 -106 -6 -20 14 -4 32 30 32
l30 0 -20 29 c-12 16 -21 32 -21 35 0 11 25 6 46 -9z m994 6 c0 -4 -9 -20 -20
-34 l-20 -26 32 -3 c42 -4 47 -24 9 -33 -36 -8 -91 2 -91 16 0 19 30 68 47 78
22 13 43 14 43 2z m-832 -94 c30 -23 3 -83 -35 -75 -22 4 -31 48 -10 48 9 0
17 -6 20 -12 2 -7 7 -10 11 -7 12 11 -6 39 -25 39 -30 0 -44 -37 -24 -66 40
-61 112 8 81 79 -17 36 23 16 64 -32 22 -28 50 -53 61 -56 33 -11 11 -23 -27
-15 -31 7 -35 6 -29 -8 24 -64 11 -114 -28 -107 -60 12 -83 31 -100 85 -3 8
-6 -4 -6 -27 -1 -30 -8 -50 -23 -65 l-21 -21 -14 46 c-7 25 -23 53 -35 62 -29
20 -41 19 -34 -3 8 -26 -10 -81 -36 -110 -15 -16 -18 -23 -8 -20 22 7 60 67
60 97 0 25 0 25 20 6 10 -11 21 -35 22 -54 2 -27 -3 -37 -22 -50 -14 -8 -40
-31 -58 -50 -37 -38 -91 -60 -128 -53 -13 2 -24 11 -24 19 0 20 -62 43 -118
43 -27 0 -75 -9 -107 -20 -71 -24 -68 -24 -53 0 14 22 62 45 77 36 5 -4 15 2
21 13 10 20 64 41 110 41 18 1 33 12 52 40 31 45 90 85 157 107 79 27 90 34
42 28 -56 -7 -136 -47 -178 -88 -37 -34 -40 -29 -15 23 13 26 33 43 82 67 36
18 81 35 100 37 19 2 57 12 85 24 49 19 67 19 93 -1z m606 6 c-32 -72 40 -141
81 -79 13 19 14 29 5 45 -14 27 -36 27 -50 1 -7 -14 -7 -20 0 -20 5 0 10 5 10
10 0 6 7 10 16 10 24 0 14 -44 -12 -48 -28 -4 -48 22 -40 53 10 38 42 46 100
24 27 -10 72 -23 100 -29 77 -16 153 -63 171 -106 21 -51 19 -52 -17 -17 -44
42 -130 84 -182 89 l-41 4 51 -18 c84 -28 144 -64 180 -106 19 -22 34 -43 34
-48 0 -4 16 -8 35 -8 41 0 105 -24 105 -39 0 -6 10 -11 23 -11 29 0 95 -45 84
-57 -2 -1 -31 7 -66 17 -104 33 -207 21 -224 -25 -8 -18 -64 -20 -101 -3 -14
6 -33 22 -41 35 -9 12 -33 34 -54 47 -33 21 -38 29 -34 53 10 60 43 98 43 49
0 -27 38 -87 60 -94 10 -3 8 3 -6 19 -26 29 -42 76 -38 107 9 52 -52 5 -69
-55 l-14 -46 -21 21 c-15 15 -22 34 -22 63 0 25 -4 38 -10 34 -6 -4 -8 -10 -5
-15 12 -19 -16 -49 -61 -66 -45 -17 -47 -17 -61 2 -14 18 -13 52 1 86 6 13 1
16 -29 16 -20 0 -42 5 -48 12 -9 8 -8 9 6 4 14 -5 31 7 70 50 50 55 88 75 71
39z m-1044 -73 c12 -38 26 -68 30 -65 4 2 5 15 3 28 -3 14 3 29 16 41 31 28
36 0 11 -63 -11 -28 -20 -60 -20 -70 0 -24 -60 -38 -72 -17 -4 7 -25 17 -45
21 -36 7 -37 8 -15 18 18 8 25 8 32 -2 5 -9 10 -10 14 -2 4 6 -7 19 -26 31
-18 11 -31 20 -28 21 43 7 67 19 38 19 -19 0 -39 51 -28 69 5 9 14 1 30 -24
25 -40 37 -42 19 -3 -8 19 -8 31 0 47 7 11 13 21 15 21 2 0 14 -31 26 -70z
m1550 24 c0 -7 -4 -16 -10 -19 -5 -3 -10 -10 -10 -16 0 -19 16 -8 34 22 13 22
21 27 26 19 11 -18 -9 -70 -28 -70 -8 0 -12 -3 -8 -7 7 -8 12 -9 39 -12 6 0
-3 -10 -21 -21 -19 -12 -30 -25 -26 -31 4 -8 9 -7 14 2 7 10 14 10 32 2 l23
-12 -26 0 c-14 -1 -33 -9 -42 -19 -10 -10 -27 -18 -40 -16 -12 1 -28 3 -34 3
-7 1 -13 10 -13 21 0 10 -9 43 -20 71 -25 63 -20 91 11 63 14 -13 19 -27 17
-46 -8 -51 8 -29 32 43 21 65 25 70 37 54 7 -11 13 -24 13 -31z m-760 -82 c29
19 33 4 11 -38 -11 -22 -27 -55 -37 -74 -14 -30 -18 -32 -22 -15 -2 11 -7 22
-11 25 -12 8 -52 102 -47 107 3 3 12 3 21 0 21 -9 30 -8 30 1 0 4 4 14 9 22 8
11 11 9 19 -13 7 -23 11 -25 27 -15z m-125 -56 c30 -14 30 -14 -21 -14 -29 0
-62 -5 -74 -12 -27 -14 -30 -11 -19 18 7 18 16 22 46 22 21 -1 52 -7 68 -14z
m271 6 c6 -4 13 -14 17 -24 5 -14 2 -15 -26 -7 -18 6 -52 10 -77 11 l-45 1 30
13 c33 14 84 18 101 6z m-501 -32 c3 -5 -12 -32 -34 -60 -71 -89 -97 -189 -95
-362 1 -86 -1 -97 -17 -101 -11 -3 -21 -2 -23 1 -4 9 1 262 7 282 2 8 7 33 12
55 13 66 34 105 78 150 43 44 61 53 72 35z m703 -38 c47 -49 74 -107 88 -187
7 -43 13 -286 7 -297 -1 -3 -11 -4 -21 -1 -16 4 -18 18 -18 126 -1 166 -31
267 -106 353 -26 29 -29 37 -17 45 19 12 16 14 67 -39z m-457 28 c27 -8 39
-17 43 -36 8 -31 -1 -45 -14 -24 -8 13 -10 12 -10 -2 0 -25 16 -30 35 -11 16
15 18 15 26 0 11 -20 39 -11 39 12 0 14 -2 14 -10 1 -13 -21 -24 -5 -16 24 14
58 143 52 226 -9 82 -60 123 -177 119 -338 -3 -146 -35 -247 -101 -322 -79
-89 -166 -125 -296 -120 -129 5 -234 77 -292 200 -36 76 -47 131 -49 242 -4
217 69 348 214 384 43 10 46 10 86 -1z m-181 -20 c0 -5 -9 -14 -20 -20 -31
-16 -77 -91 -95 -154 -18 -62 -24 -213 -12 -304 8 -62 53 -166 94 -216 49 -63
114 -101 211 -126 23 -6 40 -15 37 -20 -3 -5 -12 -7 -20 -3 -9 3 -21 0 -29 -6
-29 -24 -185 51 -226 109 -11 15 -17 30 -13 34 6 6 -11 10 -34 7 -12 -2 -17
12 -14 32 1 4 -4 18 -10 30 -12 21 -23 58 -37 122 -3 17 -6 89 -7 160 0 112 3
139 24 195 24 67 59 122 95 152 23 19 56 24 56 8z m573 -25 c41 -41 75 -109
93 -183 15 -62 17 -269 3 -278 -5 -3 -7 -9 -4 -14 6 -9 -18 -109 -33 -137 -11
-19 -12 -25 -12 -48 0 -9 -6 -15 -12 -14 -26 3 -39 -1 -33 -11 9 -14 -66 -82
-120 -109 -56 -28 -113 -42 -120 -31 -3 5 -14 7 -25 5 -12 -2 -20 2 -20 9 0 8
16 16 38 20 94 15 198 92 244 179 71 134 83 320 33 493 -11 39 -28 66 -64 102
-43 43 -46 48 -25 50 14 1 35 -11 57 -33z m-786 -67 c-13 -32 -24 -78 -33
-148 -2 -14 -4 -82 -4 -151 0 -100 -4 -130 -15 -139 -9 -7 -18 -11 -20 -8 -6
6 -8 267 -2 293 2 11 8 43 11 70 8 51 27 91 55 112 23 16 24 10 8 -29z m940
25 c34 -30 43 -57 59 -171 8 -55 7 -266 -1 -291 -7 -22 -7 -22 -21 -3 -10 14
-14 53 -14 138 1 157 -12 251 -45 327 -4 9 -5 17 -3 17 3 0 14 -8 25 -17z
m-1168 -38 c8 -8 12 -17 9 -20 -7 -7 -90 -8 -131 -2 -15 2 -30 0 -33 -5 -3 -5
-28 -26 -55 -48 -52 -41 -52 -44 -1 -55 18 -4 37 -16 44 -28 19 -37 37 -44 89
-36 57 9 76 18 108 53 19 20 27 23 38 15 16 -14 17 -52 1 -82 -17 -29 -28 -37
-54 -37 -12 0 -28 -8 -35 -17 -12 -15 -12 -16 6 -9 57 23 90 25 108 8 26 -27
29 -59 10 -137 -14 -62 -22 -75 -62 -111 -26 -23 -57 -64 -69 -91 -13 -27 -37
-57 -55 -69 -129 -84 -124 -82 -169 -73 -24 4 -47 8 -51 9 -15 0 5 21 29 30
16 7 22 14 17 26 -5 13 1 15 40 11 46 -5 46 -5 77 43 17 27 50 66 74 88 26 24
46 52 49 72 4 17 16 45 28 61 11 16 15 29 10 29 -14 0 -51 -60 -51 -82 0 -10
-23 -42 -51 -72 -28 -30 -62 -71 -76 -90 -23 -35 -55 -47 -68 -25 -4 6 2 20
14 33 11 12 27 42 36 66 15 43 15 68 -1 176 -5 36 -3 44 18 58 21 16 22 18 6
27 -10 5 -18 16 -18 24 0 8 -18 19 -42 26 -50 13 -128 85 -128 118 0 11 13 35
29 53 58 65 266 107 310 63z m1587 -5 c72 -24 108 -49 129 -90 14 -27 13 -30
-26 -74 -27 -31 -56 -51 -89 -63 -35 -12 -51 -24 -55 -41 -3 -12 -10 -20 -15
-17 -6 3 -10 1 -10 -4 0 -6 4 -11 10 -11 5 0 16 -12 24 -28 12 -23 12 -33 1
-58 -27 -66 -7 -185 39 -223 25 -21 20 -41 -12 -41 -21 0 -32 8 -45 33 -10 17
-42 58 -72 89 -30 32 -55 66 -55 75 0 23 -37 83 -51 83 -5 0 -1 -13 10 -29 12
-16 24 -44 28 -61 3 -20 23 -48 49 -72 24 -22 57 -61 74 -88 l32 -49 51 5 c46
5 50 4 38 -10 -11 -13 -10 -17 12 -25 54 -21 37 -40 -36 -43 -24 -1 -50 8 -74
24 -21 13 -55 35 -75 49 -23 15 -45 42 -60 72 -12 28 -44 68 -71 92 -35 31
-50 51 -53 76 -3 19 -10 48 -15 65 -18 57 15 130 52 119 10 -3 26 -8 36 -10
10 -2 27 -7 38 -11 18 -6 19 -5 5 10 -9 9 -28 17 -43 18 -44 4 -70 73 -43 116
6 9 16 5 43 -18 72 -64 166 -71 191 -16 8 18 23 27 53 33 l41 8 -61 52 c-53
45 -65 51 -93 46 -36 -7 -49 -7 -90 -2 -31 4 -35 11 -15 27 30 25 113 22 203
-8z m-1442 -97 c-6 -43 -10 -102 -10 -131 1 -28 -1 -52 -4 -52 -10 0 -45 61
-41 73 2 7 3 26 3 43 -1 17 3 45 7 61 5 17 5 36 0 44 -6 10 -1 17 19 26 15 7
29 12 32 13 3 0 1 -35 -6 -77z m1138 60 c3 -2 3 -16 -2 -32 -4 -15 -4 -35 1
-42 4 -8 8 -27 7 -44 -1 -16 2 -40 6 -52 4 -13 3 -23 -2 -23 -5 0 -17 -15 -26
-32 l-16 -33 0 45 c-1 51 -8 113 -19 182 l-8 48 26 -7 c14 -3 29 -7 33 -10z
m-1405 -12 c-34 -22 -59 -56 -49 -66 4 -5 3 -6 -3 -3 -5 3 -18 8 -29 12 -16 5
-12 11 25 41 24 19 53 35 64 35 17 0 16 -3 -8 -19z m200 -8 c7 -9 13 -26 13
-36 0 -16 -2 -17 -15 -7 -13 11 -20 9 -43 -12 -52 -48 -78 -60 -128 -55 -53 4
-70 21 -61 58 8 30 37 49 102 65 61 16 116 10 132 -13z m1364 11 c66 -19 99
-45 99 -79 0 -70 -142 -58 -195 17 -11 17 -17 19 -28 10 -30 -26 -37 18 -7 48
24 24 55 25 131 4z m118 -18 c22 -18 37 -36 34 -40 -13 -12 -43 -6 -43 9 0 9
-13 24 -30 33 -16 9 -30 20 -30 25 0 17 31 5 69 -27z m-1821 -163 l32 -20 -40
-27 c-22 -14 -42 -26 -45 -26 -3 0 -5 22 -5 48 0 48 8 71 19 53 3 -4 21 -17
39 -28z m1962 -25 l0 -61 -22 20 c-13 11 -33 26 -46 32 -23 12 -23 13 20 41
24 17 44 30 46 30 1 0 2 -28 2 -62z m-1888 -39 c-9 -125 -13 -145 -51 -223
-27 -54 -41 -96 -43 -128 -2 -64 -24 -71 -48 -15 -10 23 -22 60 -26 82 -4 22
-11 43 -16 46 -7 4 -7 13 0 25 5 11 12 39 16 63 4 25 17 63 29 84 22 39 112
110 132 104 5 -2 9 -19 7 -38z m1808 20 c69 -43 106 -98 117 -176 3 -27 10
-54 16 -61 7 -9 8 -16 0 -20 -5 -4 -16 -32 -23 -62 -16 -71 -39 -115 -51 -103
-6 6 -14 37 -19 70 -5 37 -19 78 -38 109 -30 48 -55 127 -44 138 2 3 -1 26 -8
50 -12 44 -9 76 7 76 4 0 24 -10 43 -21z m-1482 -137 c4 -68 37 -192 67 -256
48 -101 142 -178 237 -192 70 -11 74 -19 14 -34 -111 -26 -231 2 -309 74 -33
30 -36 37 -30 67 13 56 7 191 -9 230 -10 22 -12 42 -7 51 4 8 10 31 12 50 3
30 13 58 20 58 1 0 3 -21 5 -48z m1123 36 c0 -2 2 -23 5 -48 3 -25 9 -49 13
-53 4 -4 0 -30 -9 -57 -16 -48 -20 -201 -5 -238 7 -20 -43 -65 -107 -98 -64
-32 -162 -42 -237 -24 -55 13 -59 22 -13 28 143 18 244 113 296 277 23 71 44
187 38 208 -1 4 3 7 8 7 6 0 10 -1 11 -2z m-995 -73 c3 -25 5 -47 3 -49 -2 -2
4 -13 15 -25 14 -15 17 -30 13 -60 -5 -39 -4 -39 19 -29 13 6 27 8 31 5 3 -4
7 -40 7 -82 1 -67 4 -78 28 -101 14 -15 50 -35 79 -46 l54 -19 -45 6 c-144 19
-254 133 -294 303 -11 49 -11 64 -1 90 13 29 62 65 77 56 4 -3 10 -25 14 -49z
m905 35 c10 -6 26 -24 34 -41 14 -27 14 -35 -1 -92 -49 -178 -154 -286 -295
-302 l-44 -6 55 20 c32 11 67 33 83 52 24 26 28 38 23 68 -3 20 -3 53 1 74 4
30 9 37 22 32 32 -13 35 -10 32 28 -1 21 3 45 11 54 7 9 13 23 14 32 0 9 4 33
8 54 9 39 22 45 57 27z m-1360 -121 c-13 -42 -67 -114 -75 -100 -8 12 15 75
48 131 14 25 27 54 28 65 1 11 3 2 5 -20 3 -22 0 -56 -6 -76z m1797 9 c26 -46
37 -82 33 -111 -1 -5 -12 5 -26 21 -36 43 -61 111 -56 157 3 38 4 38 11 13 5
-15 22 -51 38 -80z m-1515 -5 c20 -39 21 -177 2 -239 -11 -37 -27 -63 -56 -89
-37 -34 -46 -37 -84 -33 -37 5 -94 33 -95 48 0 3 13 11 30 17 39 15 68 65 75
132 8 70 38 133 77 166 16 14 31 25 34 25 2 0 10 -12 17 -27z m1271 -26 c32
-41 43 -71 51 -138 8 -67 32 -109 72 -130 35 -18 32 -29 -14 -53 -49 -25 -87
-20 -128 15 -60 53 -70 80 -70 204 0 160 24 188 89 102z m-879 -176 c22 -12
45 -21 53 -21 9 0 8 -6 -4 -25 -18 -27 -9 -35 10 -9 11 14 14 14 35 -3 17 -14
23 -29 23 -56 0 -60 -39 -90 -62 -48 -23 44 -3 80 28 49 9 -9 12 -8 12 4 0 21
-37 33 -54 19 -24 -20 -122 21 -149 63 -13 19 -14 31 -7 50 5 14 7 33 3 43 -4
11 7 6 33 -14 21 -17 57 -41 79 -52z m521 64 c-3 -8 -2 -25 3 -37 12 -33 -12
-74 -59 -98 -48 -24 -80 -30 -102 -19 -21 11 -48 1 -48 -18 0 -12 3 -13 15 -3
31 26 49 -24 19 -55 -35 -34 -67 13 -52 76 9 32 15 39 34 39 13 0 24 -5 24
-11 0 -5 5 -7 12 -3 8 5 4 13 -11 26 -19 15 -20 18 -6 18 23 0 129 57 151 81
21 23 28 24 20 4z m-1058 -39 c-7 -60 -40 -104 -83 -112 -42 -7 -43 -16 -10
-42 l26 -20 -30 -21 c-40 -29 -110 -41 -153 -26 -18 6 -55 28 -81 48 -54 42
-89 47 -110 17 -18 -26 -13 -68 13 -120 24 -48 27 -68 5 -50 -8 7 -15 18 -15
24 0 6 -14 31 -30 55 -40 58 -40 103 -1 142 40 39 86 39 158 -2 51 -29 55 -30
78 -15 14 9 27 27 31 41 5 19 13 25 33 25 15 0 55 21 96 49 39 27 72 50 74 50
2 1 1 -19 -1 -43z m1562 -11 c39 -25 80 -45 93 -45 16 0 26 -9 34 -30 18 -48
48 -52 120 -15 95 49 158 26 170 -62 4 -31 -1 -46 -26 -83 -17 -25 -31 -52
-31 -61 0 -9 -7 -20 -16 -23 -17 -7 -13 16 13 68 19 37 21 90 4 110 -21 25
-54 19 -101 -16 -24 -18 -50 -38 -59 -45 -38 -28 -131 -19 -183 18 l-29 21 26
20 c28 22 32 38 10 38 -26 0 -74 29 -86 52 -13 25 -24 98 -15 98 3 0 37 -20
76 -45z m-796 -36 c-3 -5 8 -6 24 -3 16 3 32 2 35 -4 4 -5 0 -38 -8 -73 -11
-50 -15 -59 -20 -42 -4 13 -11 20 -16 17 -5 -3 -2 -21 6 -41 17 -39 13 -52 -8
-35 -10 9 -16 9 -25 0 -8 -8 -15 -8 -24 0 -9 7 -19 7 -28 2 -25 -16 -32 -11
-16 12 9 12 16 34 15 48 l0 25 -11 -25 c-10 -24 -12 -22 -20 25 -17 90 -17 90
20 87 28 -2 32 1 32 21 0 13 3 27 7 31 10 9 45 -33 37 -45z m-1185 -314 c2
-10 -2 -44 -9 -74 -11 -48 -14 -53 -25 -38 -11 16 -14 15 -29 -8 -9 -14 -20
-25 -25 -25 -9 0 -6 48 3 58 3 3 -2 14 -11 25 -17 18 -16 20 20 54 41 37 69
40 76 8z m2399 -9 c35 -33 36 -36 20 -52 -12 -12 -14 -23 -8 -39 4 -12 5 -28
0 -35 -6 -9 -12 -6 -26 14 -16 25 -18 26 -27 10 -9 -16 -12 -14 -23 16 -16 46
-17 107 -1 113 22 9 27 7 65 -27z"/>
<path d="M1285 2321 c-3 -5 -1 -12 5 -16 12 -7 30 2 30 16 0 12 -27 12 -35 0z"/>
<path d="M1235 2050 c-3 -5 3 -10 14 -10 12 0 21 5 21 10 0 6 -6 10 -14 10 -8
0 -18 -4 -21 -10z"/>
<path d="M1330 2050 c0 -5 9 -10 21 -10 11 0 17 5 14 10 -3 6 -13 10 -21 10
-8 0 -14 -4 -14 -10z"/>
<path d="M1271 2008 c-10 -26 2 -38 35 -38 23 0 40 25 23 35 -5 4 -7 11 -4 16
4 5 1 9 -5 9 -6 0 -10 -9 -8 -20 2 -10 0 -19 -4 -20 -23 -1 -26 2 -21 20 7 27
-6 25 -16 -2z"/>
<path d="M689 1619 c-15 -15 -20 -30 -17 -55 4 -33 3 -34 -26 -29 -20 4 -38 1
-51 -9 -19 -14 -18 -15 18 -9 33 5 42 2 69 -23 l30 -29 -7 25 c-25 81 -24 109
4 127 15 9 23 9 37 -2 16 -11 16 -15 5 -29 -8 -9 -12 -19 -9 -21 12 -12 30 26
24 50 -8 32 -47 34 -77 4z"/>
<path d="M1840 1625 c-14 -17 -10 -47 8 -53 11 -3 12 0 3 16 -14 26 0 36 34
28 30 -8 35 -37 18 -96 -7 -25 -13 -47 -13 -49 0 -3 13 8 29 24 26 24 36 27
68 22 36 -6 37 -5 18 9 -13 10 -31 13 -51 9 -29 -5 -30 -4 -26 29 7 56 -56
100 -88 61z"/>
<path d="M1287 1377 c-3 -8 1 -14 8 -14 7 0 11 6 8 14 -3 7 -6 13 -8 13 -2 0
-5 -6 -8 -13z"/>
<path d="M1321 1374 c0 -11 3 -14 6 -6 3 7 2 16 -1 19 -3 4 -6 -2 -5 -13z"/>
<path d="M982 1250 c0 -16 4 -30 9 -30 6 0 7 5 4 10 -3 6 1 10 11 10 14 0 15
2 3 17 -10 11 -10 14 -1 9 6 -4 12 -2 12 3 0 6 -8 11 -18 11 -14 0 -19 -8 -20
-30z"/>
<path d="M1060 1251 c0 -25 4 -31 21 -31 19 0 19 1 5 16 -9 8 -14 19 -11 24 3
5 1 11 -5 15 -6 4 -10 -6 -10 -24z"/>
<path d="M1135 1259 c-5 -16 -2 -26 10 -35 25 -19 47 -6 43 25 -4 35 -43 42
-53 10z m37 -14 c0 -5 -5 -11 -11 -13 -6 -2 -11 4 -11 13 0 9 5 15 11 13 6 -2
11 -8 11 -13z"/>
<path d="M1230 1250 c0 -30 14 -41 23 -17 4 10 6 10 6 0 1 -7 5 -13 9 -13 12
0 10 44 -2 52 -23 16 -36 7 -36 -22z"/>
<path d="M1312 1256 c-2 -30 18 -48 38 -36 12 8 11 10 -5 10 -11 0 -15 4 -10
8 19 13 17 42 -2 42 -12 0 -19 -8 -21 -24z"/>
<path d="M1395 1250 c0 -16 3 -30 7 -30 5 0 8 5 8 12 0 9 3 9 12 0 20 -20 28
-14 28 21 0 25 -3 29 -11 17 -8 -11 -12 -12 -16 -2 -9 24 -29 12 -28 -18z"/>
<path d="M1497 1273 c-21 -21 10 -72 34 -57 9 5 5 10 -12 16 l-24 9 25 19 c24
19 24 20 4 20 -11 0 -24 -3 -27 -7z"/>
<path d="M1579 1273 c0 -5 -2 -16 -4 -25 -4 -23 17 -39 35 -28 12 8 11 10 -5
11 l-20 0 20 9 c11 5 14 9 6 9 -11 1 -11 4 -1 16 10 13 9 15 -9 15 -11 0 -21
-3 -22 -7z"/>
<path d="M1068 1142 c-4 -13 -4 -30 -1 -38 6 -16 33 -19 33 -4 0 6 -4 10 -9
10 -5 0 -11 12 -13 28 -3 26 -3 26 -10 4z"/>
<path d="M1141 1132 c-1 -36 24 -55 40 -31 12 19 11 49 -1 49 -5 0 -10 -9 -10
-20 0 -11 -5 -20 -11 -20 -5 0 -8 3 -6 8 3 4 1 16 -4 27 -6 16 -8 14 -8 -13z"/>
<path d="M1319 1150 c-8 -18 6 -60 20 -60 5 0 13 6 18 13 12 19 14 47 3 47 -6
0 -10 -9 -10 -20 0 -30 -18 -24 -22 8 -2 18 -5 22 -9 12z"/>
<path d="M1412 1147 c-5 -7 -8 -20 -6 -30 3 -23 14 -35 14 -17 0 9 3 10 13 1
11 -9 14 -5 15 18 1 31 -20 48 -36 28z"/>
<path d="M1516 1151 c-4 -6 -14 -7 -24 -4 -14 5 -15 3 -4 -8 6 -7 12 -22 13
-33 0 -16 4 -13 15 13 14 31 14 55 0 32z"/>
<path d="M1233 1121 c0 -20 6 -26 23 -27 19 -2 22 1 14 16 -6 11 -5 21 1 27 7
7 3 11 -14 11 -19 0 -24 -6 -24 -27z"/>
<path d="M1095 1008 c8 -26 22 -44 29 -37 2 2 8 18 11 34 7 29 7 29 -8 10 -15
-18 -16 -18 -17 -2 0 9 -5 17 -11 17 -6 0 -8 -9 -4 -22z"/>
<path d="M1180 999 c0 -18 3 -29 7 -25 10 10 11 46 1 52 -4 3 -8 -9 -8 -27z"/>
<path d="M1239 1020 c-10 -26 2 -50 25 -49 16 1 17 2 4 6 -9 2 -18 16 -20 31
-2 18 -5 22 -9 12z"/>
<path d="M1310 1002 c0 -27 4 -32 23 -32 17 0 19 2 8 9 -8 5 -16 17 -17 26 -5
31 -14 29 -14 -3z"/>
<path d="M1392 1005 c-15 -33 -16 -32 17 -32 27 0 27 2 17 29 -13 35 -20 35
-34 3z"/>
<path d="M1474 1018 c-4 -6 1 -17 11 -25 18 -13 18 -13 -1 -13 -16 0 -16 -2
-4 -10 22 -14 37 6 23 30 -10 14 -10 20 0 23 7 3 5 6 -5 6 -9 1 -20 -4 -24
-11z"/>
<path d="M1171 874 c0 -11 3 -14 6 -6 3 7 2 16 -1 19 -3 4 -6 -2 -5 -13z"/>
<path d="M1220 876 c0 -9 5 -16 10 -16 6 0 10 4 10 9 0 6 -4 13 -10 16 -5 3
-10 -1 -10 -9z"/>
<path d="M1255 881 c-3 -5 -2 -12 3 -15 5 -3 9 1 9 9 0 17 -3 19 -12 6z"/>
<path d="M1291 874 c0 -11 3 -14 6 -6 3 7 2 16 -1 19 -3 4 -6 -2 -5 -13z"/>
<path d="M1387 883 c-10 -9 -9 -23 1 -23 5 0 9 7 9 15 0 17 -1 18 -10 8z"/>
<path d="M1416 881 c-4 -5 -2 -12 3 -15 5 -4 12 -2 15 3 4 5 2 12 -3 15 -5 4
-12 2 -15 -3z"/>
<path d="M1340 870 c0 -5 4 -10 9 -10 6 0 13 5 16 10 3 6 -1 10 -9 10 -9 0
-16 -4 -16 -10z"/>
<path d="M650 1280 c0 -5 5 -10 10 -10 6 0 10 5 10 10 0 6 -4 10 -10 10 -5 0
-10 -4 -10 -10z"/>
<path d="M498 1041 c-32 -19 -37 -31 -8 -24 19 5 46 31 39 37 -2 1 -16 -4 -31
-13z"/>
<path d="M1930 1280 c0 -5 5 -10 10 -10 6 0 10 5 10 10 0 6 -4 10 -10 10 -5 0
-10 -4 -10 -10z"/>
<path d="M2070 1052 c0 -6 10 -18 22 -26 22 -15 38 -13 38 5 0 6 -5 7 -11 4
-5 -4 -19 1 -30 11 -10 9 -19 12 -19 6z"/>
</g>
</svg>
